<svg width="47" height="47" viewBox="0 0 47 47" fill="none" xmlns="http://www.w3.org/2000/svg">
<path d="M0 23.4179C0 36.3513 10.5666 46.8358 23.5 46.8358C36.4334 46.8358 47 36.3513 47 23.4179C47 10.4846 36.4334 0 23.5 0C10.5666 0 0 10.4846 0 23.4179Z" fill="#DC2627"/>
<path d="M11.1191 21.5318C11.5344 18.5757 13.0167 15.8679 15.2924 13.9082C17.568 11.9484 20.4835 10.8689 23.5008 10.8689C26.5181 10.8689 29.4336 11.9484 31.7093 13.9082C33.9849 15.8679 35.4672 18.5757 35.8825 21.5318H11.1191ZM23.5105 7.58907C19.3242 7.58315 15.3068 9.22177 12.3416 12.1447C9.3763 15.0676 7.70579 19.0356 7.69727 23.1764V24.8052H39.3269V23.1764C39.315 19.0361 37.6429 15.0696 34.6777 12.1473C31.7125 9.225 27.6963 7.58568 23.5105 7.58907Z" fill="#F9FAFB"/>
<path d="M23.7139 35.8347C19.5147 35.8347 15.4535 33.526 13.3186 30.0101L10.4999 31.7779C13.2159 36.3723 18.2979 39.2187 23.7139 39.2187C29.1298 39.2187 34.1894 36.3723 36.9246 31.7779L34.1059 30.0101C31.987 33.526 27.9098 35.8347 23.7139 35.8347Z" fill="#F9FAFB"/>
</svg>
